<svg xmlns="http://www.w3.org/2000/svg" version="1.1" xmlns:xlink="http://www.w3.org/1999/xlink" xmlns:svgjs="http://svgjs.dev/svgjs" width="2000" height="494" viewBox="0 0 2000 494"><g transform="matrix(1,0,0,1,-1.2121212121212466,1.2046770847279618)"><svg viewBox="0 0 396 98" data-background-color="#f9f9f9" preserveAspectRatio="xMidYMid meet" height="494" width="2000" xmlns="http://www.w3.org/2000/svg" xmlns:xlink="http://www.w3.org/1999/xlink"><g id="tight-bounds" transform="matrix(1,0,0,1,0.2400000000000091,-0.23898452288125327)"><svg viewBox="0 0 395.52 98.47780781749118" height="98.47780781749118" width="395.52"><g><svg viewBox="0 0 552.7313209993762 137.62077468670256" height="98.47780781749118" width="395.52"><g transform="matrix(1,0,0,1,157.2113209993762,27.318354454210372)"><svg viewBox="0 0 395.52 82.98406577828182" height="82.98406577828182" width="395.52"><g id="textblocktransform"><svg viewBox="0 0 395.52 82.98406577828182" height="82.98406577828182" width="395.52" id="textblock"><g><svg viewBox="0 0 395.52 82.98406577828182" height="82.98406577828182" width="395.52"><g transform="matrix(1,0,0,1,0,0)"><svg width="395.52" viewBox="3.7 -36.5 176.34 37" height="82.98406577828182" data-palette-color="#030303"><path d="M10.6 0L3.7 0 3.7-35.5 19.4-35.5Q21.85-35.5 23.93-34.5 26-33.5 27.53-31.8 29.05-30.1 29.88-28 30.7-25.9 30.7-23.7L30.7-23.7Q30.7-21.45 29.93-19.38 29.15-17.3 27.7-15.75 26.25-14.2 24.3-13.35L24.3-13.35 32.4 0 24.8 0 17.5-11.9 10.6-11.9 10.6 0ZM10.6-29.45L10.6-17.95 19.25-17.95Q20.55-17.95 21.55-18.73 22.55-19.5 23.15-20.8 23.75-22.1 23.75-23.7L23.75-23.7Q23.75-25.4 23.05-26.68 22.35-27.95 21.28-28.7 20.2-29.45 18.95-29.45L18.95-29.45 10.6-29.45ZM47.5 0.5L47.5 0.5Q44.3 0.5 41.75-0.58 39.2-1.65 37.42-3.55 35.65-5.45 34.7-7.9 33.75-10.35 33.75-13.05L33.75-13.05Q33.75-15.8 34.7-18.25 35.65-20.7 37.42-22.6 39.2-24.5 41.75-25.58 44.3-26.65 47.5-26.65L47.5-26.65Q50.7-26.65 53.22-25.58 55.75-24.5 57.55-22.6 59.35-20.7 60.27-18.25 61.2-15.8 61.2-13.05L61.2-13.05Q61.2-10.35 60.27-7.9 59.35-5.45 57.57-3.55 55.8-1.65 53.25-0.58 50.7 0.5 47.5 0.5ZM40.65-13.05L40.65-13.05Q40.65-10.75 41.55-8.97 42.45-7.2 44-6.2 45.55-5.2 47.5-5.2L47.5-5.2Q49.4-5.2 50.95-6.23 52.5-7.25 53.42-9.03 54.35-10.8 54.35-13.1L54.35-13.1Q54.35-15.35 53.42-17.15 52.5-18.95 50.95-19.95 49.4-20.95 47.5-20.95L47.5-20.95Q45.55-20.95 44-19.93 42.45-18.9 41.55-17.13 40.65-15.35 40.65-13.05ZM80.6 0.5L80.6 0.5Q77.6 0.5 75.25-0.85 72.9-2.2 71.55-4.55L71.55-4.55 71.55 0 65.7 0 65.7-36.5 72.4-36.5 72.4-21.6Q73.8-23.95 76.07-25.3 78.35-26.65 81.4-26.65L81.4-26.65Q83.95-26.65 86.05-25.58 88.15-24.5 89.67-22.6 91.2-20.7 92.02-18.25 92.85-15.8 92.85-13L92.85-13Q92.85-10.2 91.92-7.75 91-5.3 89.35-3.43 87.7-1.55 85.47-0.53 83.25 0.5 80.6 0.5ZM78.75-5.2L78.75-5.2Q80.35-5.2 81.67-5.83 83-6.45 83.97-7.5 84.95-8.55 85.47-9.98 86-11.4 86-12.95L86-12.95Q86-15.1 85.12-16.93 84.25-18.75 82.72-19.85 81.2-20.95 79.15-20.95L79.15-20.95Q77.7-20.95 76.37-20.28 75.05-19.6 74.02-18.45 73-17.3 72.4-15.85L72.4-15.85 72.4-9.6Q72.7-8.6 73.37-7.8 74.05-7 74.95-6.43 75.85-5.85 76.82-5.53 77.8-5.2 78.75-5.2ZM109.49 0.5L109.49 0.5Q106.29 0.5 103.74-0.58 101.19-1.65 99.42-3.55 97.64-5.45 96.69-7.9 95.74-10.35 95.74-13.05L95.74-13.05Q95.74-15.8 96.69-18.25 97.64-20.7 99.42-22.6 101.19-24.5 103.74-25.58 106.29-26.65 109.49-26.65L109.49-26.65Q112.69-26.65 115.22-25.58 117.74-24.5 119.54-22.6 121.34-20.7 122.27-18.25 123.19-15.8 123.19-13.05L123.19-13.05Q123.19-10.35 122.27-7.9 121.34-5.45 119.57-3.55 117.79-1.65 115.24-0.58 112.69 0.5 109.49 0.5ZM102.64-13.05L102.64-13.05Q102.64-10.75 103.54-8.97 104.44-7.2 105.99-6.2 107.54-5.2 109.49-5.2L109.49-5.2Q111.39-5.2 112.94-6.23 114.49-7.25 115.42-9.03 116.34-10.8 116.34-13.1L116.34-13.1Q116.34-15.35 115.42-17.15 114.49-18.95 112.94-19.95 111.39-20.95 109.49-20.95L109.49-20.95Q107.54-20.95 105.99-19.93 104.44-18.9 103.54-17.13 102.64-15.35 102.64-13.05ZM152.74 0L145.59 0 137.94-11.3 134.39-7.8 134.39 0 127.69 0 127.69-36.5 134.39-36.5 134.39-14.4 144.94-26.15 152.04-26.15 142.29-15.05 152.74 0ZM166.34 0.5L166.34 0.5Q163.14 0.5 160.59-0.58 158.04-1.65 156.26-3.55 154.49-5.45 153.54-7.9 152.59-10.35 152.59-13.05L152.59-13.05Q152.59-15.8 153.54-18.25 154.49-20.7 156.26-22.6 158.04-24.5 160.59-25.58 163.14-26.65 166.34-26.65L166.34-26.65Q169.54-26.65 172.06-25.58 174.59-24.5 176.39-22.6 178.19-20.7 179.11-18.25 180.04-15.8 180.04-13.05L180.04-13.05Q180.04-10.35 179.11-7.9 178.19-5.45 176.41-3.55 174.64-1.65 172.09-0.58 169.54 0.5 166.34 0.5ZM159.49-13.05L159.49-13.05Q159.49-10.75 160.39-8.97 161.29-7.2 162.84-6.2 164.39-5.2 166.34-5.2L166.34-5.2Q168.24-5.2 169.79-6.23 171.34-7.25 172.26-9.03 173.19-10.8 173.19-13.1L173.19-13.1Q173.19-15.35 172.26-17.15 171.34-18.95 169.79-19.95 168.24-20.95 166.34-20.95L166.34-20.95Q164.39-20.95 162.84-19.93 161.29-18.9 160.39-17.13 159.49-15.35 159.49-13.05Z" opacity="1" transform="matrix(1,0,0,1,0,0)" fill="#000000" class="wordmark-text-0" data-fill-palette-color="primary" id="text-0"></path></svg></g></svg></g></svg></g></svg></g><g><svg viewBox="0 0 137.62077468670253 137.62077468670256" height="137.62077468670256" width="137.62077468670253"><g><svg></svg></g><g id="icon-0"><svg viewBox="0 0 137.62077468670253 137.62077468670256" height="137.62077468670256" width="137.62077468670253"><g><path transform="scale(1.37621,1.37621)" d="M30 100c-16.569 0-30-13.431-30-30v-40c0-16.569 13.431-30 30-30h40c16.569 0 30 13.431 30 30v40c0 16.569-13.431 30-30 30z" fill="#000000" fill-rule="nonzero" stroke="none" stroke-width="1" stroke-linecap="butt" stroke-linejoin="miter" stroke-miterlimit="10" stroke-dasharray="" stroke-dashoffset="0" font-family="none" font-weight="none" font-size="none" text-anchor="none" style="mix-blend-mode: normal" data-fill-palette-color="accent"></path></g><g transform="matrix(1,0,0,1,39.77780249081007,27.524154937340512)"><svg viewBox="0 0 58.0651697050824 82.57246481202154" height="82.57246481202154" width="58.0651697050824"><g><svg xmlns="http://www.w3.org/2000/svg" xmlns:xlink="http://www.w3.org/1999/xlink" version="1.1" x="0" y="0" viewBox="15.138 1.6830000000000003 67.563 96.079" enable-background="new 0 0 100 100" xml:space="preserve" height="82.57246481202154" width="58.0651697050824" class="icon-cg-0" data-fill-palette-color="quaternary" id="cg-0"><g fill="#f9f9f9" data-fill-palette-color="quaternary"><path d="M50.658 17.943c0 1.934 1.568 3.502 3.502 3.502 1.936 0 3.503-1.568 3.503-3.502 0-1.935-1.567-3.503-3.503-3.503C52.227 14.44 50.658 16.008 50.658 17.943L50.658 17.943zM40.404 26.125c0 1.284 1.097 2.325 2.45 2.325h11.208c1.352 0 2.449-1.041 2.449-2.325 0-1.284-1.098-2.325-2.449-2.325H42.854C41.501 23.8 40.404 24.841 40.404 26.125L40.404 26.125zM39.296 17.943c0 1.934 1.568 3.502 3.503 3.502s3.503-1.568 3.503-3.502c0-1.935-1.568-3.503-3.503-3.503S39.296 16.008 39.296 17.943L39.296 17.943zM39.282 36.843v6.525c0 0.676 0.548 1.224 1.224 1.224h4.836c0.151-1.559 1.466-2.778 3.065-2.778 0.422 0 0.825 0.085 1.191 0.239l3.133-3.61c0.535-0.617 1.461 0.186 0.925 0.803l-3.04 3.502c0.474 0.487 0.788 1.13 0.857 1.844h4.91c0.676 0 1.225-0.548 1.225-1.224v-6.525c0-0.676-0.549-1.225-1.225-1.225H40.506C39.83 35.618 39.282 36.167 39.282 36.843L39.282 36.843zM46.205 5.277c0 1.023 0.667 1.891 1.589 2.192V7.351c0-0.428 0.335-0.645 0.645-0.645s0.644 0.217 0.644 0.645v0.161c0.997-0.254 1.734-1.159 1.734-2.234 0-1.274-1.032-2.306-2.307-2.306C47.238 2.971 46.205 4.003 46.205 5.277L46.205 5.277zM27.612 59.116l-1.124 0.239-1.251-5.887c-0.277-1.307-1.561-2.141-2.867-1.863l-0.43 0.092c-1.306 0.277-2.139 1.561-1.861 2.866l1.251 5.888-1.125 0.239-2.534-2.813-2.533-2.814 1.17-3.602 1.17-3.601 0.765-0.163c-0.227-1.143-0.22-2.247-0.094-3.271 0.804-6.547 6.97-10.524 13.624-11.378 0.448-0.588 1.155-0.968 1.951-0.968h9.514v-1.219h-3.831c-1.256 0-2.274-1.019-2.274-2.275v-3.858H35.78c-0.676 0-1.225-0.549-1.225-1.225v-4.954c0-0.676 0.548-1.225 1.225-1.225h1.352v-4.858c0-1.256 1.019-2.274 2.274-2.274h8.389V8.801c-1.643-0.333-2.878-1.783-2.878-3.523 0-1.986 1.609-3.595 3.595-3.595s3.596 1.609 3.596 3.595c0 1.791-1.31 3.275-3.023 3.55v1.364H57.5c1.256 0 2.275 1.019 2.275 2.274v4.858h1.334c0.678 0 1.227 0.548 1.227 1.225v4.954c0 0.676-0.549 1.225-1.227 1.225h-1.334v3.858c0 1.256-1.02 2.275-2.275 2.275h-3.801v1.219h9.512c0.863 0 1.623 0.448 2.059 1.124 5.086-0.601 8.021-3.439 8.343-6.062 0.062-0.489 0.054-0.898-0.008-1.252l-0.651 0.139-2.533-2.814L67.886 20.4l1.169-3.601 1.172-3.601 1.125-0.239 1.25 5.887c0.277 1.306 1.562 2.139 2.867 1.861l0.43-0.091c1.307-0.277 2.139-1.561 1.861-2.867l-1.25-5.887 1.123-0.239 2.533 2.814 2.535 2.814-1.17 3.601-1.172 3.601-0.764 0.163c0.227 1.142 0.219 2.246 0.094 3.271-0.82 6.679-7.223 10.684-14.03 11.426V61.26c0 1.352-1.097 2.447-2.448 2.447h-0.473V89.25h1.178v6.333h1.336v2.179H49.326v-2.179h1.402V89.25h1.521V63.707h-7.645V89.25h1.178v6.333h1.337v2.179H31.192v-2.179h1.403V89.25h1.521V63.707h-0.393c-1.353 0-2.449-1.096-2.449-2.447V39.32c-4.289 0.89-6.754 3.46-7.048 5.852-0.061 0.49-0.053 0.898 0.008 1.252l0.652-0.138 2.533 2.814 2.534 2.812-1.169 3.603L27.612 59.116 27.612 59.116z" fill="#ffffff" data-fill-palette-color="quaternary"></path></g></svg></g></svg></g></svg></g></svg></g></svg></g><defs></defs></svg><rect width="395.52" height="98.47780781749118" fill="none" stroke="none" visibility="hidden"></rect></g></svg></g></svg>